<svg width="578.5774780273438px" height="157.48756103515623px" xmlns="http://www.w3.org/2000/svg" viewBox="-39.288739013671886 -3.7437805175781165 578.5774780273438 157.48756103515623" style="background: rgba(0, 0, 0, 0);" preserveAspectRatio="xMidYMid"><defs><filter id="editing-hole" x="-100%" y="-100%" width="300%" height="300%"><feFlood flood-color="#000" result="black"></feFlood><feMorphology operator="dilate" radius="2" in="SourceGraphic" result="erode"></feMorphology><feGaussianBlur in="erode" stdDeviation="4" result="blur"></feGaussianBlur><feOffset in="blur" dx="2" dy="2" result="offset"></feOffset><feComposite operator="atop" in="offset" in2="black" result="merge"></feComposite><feComposite operator="in" in="merge" in2="SourceGraphic" result="inner-shadow"></feComposite></filter></defs><g filter="url(#editing-hole)"><g transform="translate(44.56000852584839, 94.52000045776367)"><path d="M19.78 1.02L19.78 1.02L19.78 1.02Q16 1.02 12.77-0.03L12.77-0.03L12.77-0.03Q9.54-1.09 7.14-3.20L7.14-3.20L7.14-3.20Q4.74-5.31 3.36-8.51L3.36-8.51L3.36-8.51Q1.98-11.71 1.98-16L1.98-16L1.98-16Q1.98-20.22 3.36-23.26L3.36-23.26L3.36-23.26Q4.74-26.30 6.98-28.26L6.98-28.26L6.98-28.26Q9.22-30.21 12.10-31.14L12.10-31.14L12.10-31.14Q14.98-32.06 17.98-32.06L17.98-32.06L17.98-32.06Q21.38-32.06 24.16-31.04L24.16-31.04L24.16-31.04Q26.94-30.02 28.96-28.22L28.96-28.22L28.96-28.22Q30.98-26.43 32.10-23.94L32.10-23.94L32.10-23.94Q33.22-21.44 33.22-18.50L33.22-18.50L33.22-18.50Q33.22-16.32 32-15.17L32-15.17L32-15.17Q30.78-14.02 28.61-13.70L28.61-13.70L12.80-11.33L12.80-11.33Q13.50-9.22 15.68-8.16L15.68-8.16L15.68-8.16Q17.86-7.10 20.67-7.10L20.67-7.10L20.67-7.10Q23.30-7.10 25.63-7.78L25.63-7.78L25.63-7.78Q27.97-8.45 29.44-9.34L29.44-9.34L29.44-9.34Q30.46-8.70 31.17-7.55L31.17-7.55L31.17-7.55Q31.87-6.40 31.87-5.12L31.87-5.12L31.87-5.12Q31.87-2.24 29.18-0.83L29.18-0.83L29.18-0.83Q27.14 0.26 24.58 0.64L24.58 0.64L24.58 0.64Q22.02 1.02 19.78 1.02ZM17.98-24.13L17.98-24.13L17.98-24.13Q16.45-24.13 15.33-23.62L15.33-23.62L15.33-23.62Q14.21-23.10 13.50-22.30L13.50-22.30L13.50-22.30Q12.80-21.50 12.45-20.51L12.45-20.51L12.45-20.51Q12.10-19.52 12.03-18.50L12.03-18.50L22.98-20.29L22.98-20.29Q22.78-21.57 21.57-22.85L21.57-22.85L21.57-22.85Q20.35-24.13 17.98-24.13ZM64.70-9.28L64.70-9.28L64.70-9.28Q64.70-4.42 61.06-1.66L61.06-1.66L61.06-1.66Q57.41 1.09 50.30 1.09L50.30 1.09L50.30 1.09Q47.62 1.09 45.31 0.70L45.31 0.70L45.31 0.70Q43.01 0.32 41.38-0.48L41.38-0.48L41.38-0.48Q39.74-1.28 38.82-2.50L38.82-2.50L38.82-2.50Q37.89-3.71 37.89-5.38L37.89-5.38L37.89-5.38Q37.89-6.91 38.53-7.97L38.53-7.97L38.53-7.97Q39.17-9.02 40.06-9.73L40.06-9.73L40.06-9.73Q41.92-8.70 44.32-7.90L44.32-7.90L44.32-7.90Q46.72-7.10 49.86-7.10L49.86-7.10L49.86-7.10Q51.84-7.10 52.90-7.68L52.90-7.68L52.90-7.68Q53.95-8.26 53.95-9.22L53.95-9.22L53.95-9.22Q53.95-10.11 53.18-10.62L53.18-10.62L53.18-10.62Q52.42-11.14 50.62-11.46L50.62-11.46L48.70-11.84L48.70-11.84Q43.14-12.93 40.42-15.26L40.42-15.26L40.42-15.26Q37.70-17.60 37.70-21.95L37.70-21.95L37.70-21.95Q37.70-24.32 38.72-26.24L38.72-26.24L38.72-26.24Q39.74-28.16 41.60-29.44L41.60-29.44L41.60-29.44Q43.46-30.72 46.05-31.42L46.05-31.42L46.05-31.42Q48.64-32.13 51.78-32.13L51.78-32.13L51.78-32.13Q54.14-32.13 56.22-31.78L56.22-31.78L56.22-31.78Q58.30-31.42 59.84-30.72L59.84-30.72L59.84-30.72Q61.38-30.02 62.27-28.90L62.27-28.90L62.27-28.90Q63.17-27.78 63.17-26.24L63.17-26.24L63.17-26.24Q63.17-24.77 62.62-23.71L62.62-23.71L62.62-23.71Q62.08-22.66 61.25-21.95L61.25-21.95L61.25-21.95Q60.74-22.27 59.71-22.62L59.71-22.62L59.71-22.62Q58.69-22.98 57.47-23.26L57.47-23.26L57.47-23.26Q56.26-23.55 55.01-23.74L55.01-23.74L55.01-23.74Q53.76-23.94 52.74-23.94L52.74-23.94L52.74-23.94Q50.62-23.94 49.47-23.46L49.47-23.46L49.47-23.46Q48.32-22.98 48.32-21.95L48.32-21.95L48.32-21.95Q48.32-21.25 48.96-20.80L48.96-20.80L48.96-20.80Q49.60-20.35 51.39-19.97L51.39-19.97L53.38-19.52L53.38-19.52Q59.52-18.11 62.11-15.65L62.11-15.65L62.11-15.65Q64.70-13.18 64.70-9.28ZM89.66-4.61L89.66-19.71L89.66-19.71Q89.66-21.70 88.54-22.62L88.54-22.62L88.54-22.62Q87.42-23.55 85.50-23.55L85.50-23.55L85.50-23.55Q84.22-23.55 82.98-23.23L82.98-23.23L82.98-23.23Q81.73-22.91 80.83-22.27L80.83-22.27L80.83-0.06L80.83-0.06Q80.19 0.13 78.82 0.32L78.82 0.32L78.82 0.32Q77.44 0.51 75.97 0.51L75.97 0.51L75.97 0.51Q74.56 0.51 73.44 0.32L73.44 0.32L73.44 0.32Q72.32 0.13 71.55-0.45L71.55-0.45L71.55-0.45Q70.78-1.02 70.37-2.02L70.37-2.02L70.37-2.02Q69.95-3.01 69.95-4.61L69.95-4.61L69.95-23.81L69.95-23.81Q69.95-25.54 70.69-26.62L70.69-26.62L70.69-26.62Q71.42-27.71 72.70-28.61L72.70-28.61L72.70-28.61Q74.88-30.14 78.18-31.10L78.18-31.10L78.18-31.10Q81.47-32.06 85.50-32.06L85.50-32.06L85.50-32.06Q92.74-32.06 96.64-28.90L96.64-28.90L96.64-28.90Q100.54-25.73 100.54-20.10L100.54-20.10L100.54-0.06L100.54-0.06Q99.90 0.13 98.53 0.32L98.53 0.32L98.53 0.32Q97.15 0.51 95.68 0.51L95.68 0.51L95.68 0.51Q94.27 0.51 93.15 0.32L93.15 0.32L93.15 0.32Q92.03 0.13 91.26-0.45L91.26-0.45L91.26-0.45Q90.50-1.02 90.08-2.02L90.08-2.02L90.08-2.02Q89.66-3.01 89.66-4.61L89.66-4.61ZM123.71 1.02L123.71 1.02L123.71 1.02Q119.94 1.02 116.70-0.03L116.70-0.03L116.70-0.03Q113.47-1.09 111.07-3.20L111.07-3.20L111.07-3.20Q108.67-5.31 107.30-8.51L107.30-8.51L107.30-8.51Q105.92-11.71 105.92-16L105.92-16L105.92-16Q105.92-20.22 107.30-23.26L107.30-23.26L107.30-23.26Q108.67-26.30 110.91-28.26L110.91-28.26L110.91-28.26Q113.15-30.21 116.03-31.14L116.03-31.14L116.03-31.14Q118.91-32.06 121.92-32.06L121.92-32.06L121.92-32.06Q125.31-32.06 128.10-31.04L128.10-31.04L128.10-31.04Q130.88-30.02 132.90-28.22L132.90-28.22L132.90-28.22Q134.91-26.43 136.03-23.94L136.03-23.94L136.03-23.94Q137.15-21.44 137.15-18.50L137.15-18.50L137.15-18.50Q137.15-16.32 135.94-15.17L135.94-15.17L135.94-15.17Q134.72-14.02 132.54-13.70L132.54-13.70L116.74-11.33L116.74-11.33Q117.44-9.22 119.62-8.16L119.62-8.16L119.62-8.16Q121.79-7.10 124.61-7.10L124.61-7.10L124.61-7.10Q127.23-7.10 129.57-7.78L129.57-7.78L129.57-7.78Q131.90-8.45 133.38-9.34L133.38-9.34L133.38-9.34Q134.40-8.70 135.10-7.55L135.10-7.55L135.10-7.55Q135.81-6.40 135.81-5.12L135.81-5.12L135.81-5.12Q135.81-2.24 133.12-0.83L133.12-0.83L133.12-0.83Q131.07 0.26 128.51 0.64L128.51 0.64L128.51 0.64Q125.95 1.02 123.71 1.02ZM121.92-24.13L121.92-24.13L121.92-24.13Q120.38-24.13 119.26-23.62L119.26-23.62L119.26-23.62Q118.14-23.10 117.44-22.30L117.44-22.30L117.44-22.30Q116.74-21.50 116.38-20.51L116.38-20.51L116.38-20.51Q116.03-19.52 115.97-18.50L115.97-18.50L126.91-20.29L126.91-20.29Q126.72-21.57 125.50-22.85L125.50-22.85L125.50-22.85Q124.29-24.13 121.92-24.13ZM149.25-16L140.67-26.05L140.67-26.05Q141.18-28.48 142.69-30.02L142.69-30.02L142.69-30.02Q144.19-31.55 146.43-31.55L146.43-31.55L146.43-31.55Q148.54-31.55 149.70-30.53L149.70-30.53L149.70-30.53Q150.85-29.50 152.26-27.65L152.26-27.65L156.35-22.27L163.20-31.55L163.20-31.55Q166.72-31.55 168.77-30.30L168.77-30.30L168.77-30.30Q170.82-29.06 170.82-26.94L170.82-26.94L170.82-26.94Q170.82-26.11 170.59-25.44L170.59-25.44L170.59-25.44Q170.37-24.77 169.92-24.06L169.92-24.06L169.92-24.06Q169.47-23.36 168.77-22.46L168.77-22.46L168.77-22.46Q168.06-21.57 167.10-20.35L167.10-20.35L162.88-15.62L171.26-4.54L171.26-4.54Q170.94-2.11 169.34-0.70L169.34-0.70L169.34-0.70Q167.74 0.70 165.50 0.70L165.50 0.70L165.50 0.70Q163.07 0.64 161.63-0.70L161.63-0.70L161.63-0.70Q160.19-2.05 158.85-3.97L158.85-3.97L155.39-8.90L148.86 0.51L148.86 0.51Q148.54 0.51 148.16 0.54L148.16 0.54L148.16 0.54Q147.78 0.58 147.52 0.58L147.52 0.58L147.52 0.58Q144.26 0.58 142.56-0.77L142.56-0.77L142.56-0.77Q140.86-2.11 140.86-4.10L140.86-4.10L140.86-4.10Q140.86-5.63 141.60-6.82L141.60-6.82L141.60-6.82Q142.34-8 144.13-10.05L144.13-10.05L149.25-16ZM186.75-20.35L186.75-10.69L186.75-10.69Q186.75-9.02 187.81-8.32L187.81-8.32L187.81-8.32Q188.86-7.62 190.78-7.62L190.78-7.62L190.78-7.62Q191.74-7.62 192.77-7.78L192.77-7.78L192.77-7.78Q193.79-7.94 194.56-8.19L194.56-8.19L194.56-8.19Q195.14-7.49 195.55-6.62L195.55-6.62L195.55-6.62Q195.97-5.76 195.97-4.54L195.97-4.54L195.97-4.54Q195.97-2.11 194.14-0.58L194.14-0.58L194.14-0.58Q192.32 0.96 187.71 0.96L187.71 0.96L187.71 0.96Q182.08 0.96 179.04-1.60L179.04-1.60L179.04-1.60Q176-4.16 176-9.92L176-9.92L176-37.31L176-37.31Q176.70-37.50 178.02-37.73L178.02-37.73L178.02-37.73Q179.33-37.95 180.80-37.95L180.80-37.95L180.80-37.95Q183.62-37.95 185.18-36.96L185.18-36.96L185.18-36.96Q186.75-35.97 186.75-32.77L186.75-32.77L186.75-28.67L195.14-28.67L195.14-28.67Q195.52-27.97 195.87-26.91L195.87-26.91L195.87-26.91Q196.22-25.86 196.22-24.58L196.22-24.58L196.22-24.58Q196.22-22.34 195.23-21.34L195.23-21.34L195.23-21.34Q194.24-20.35 192.58-20.35L192.58-20.35L186.75-20.35ZM214.98-11.90L201.28-11.90L201.28-11.90Q200.83-12.61 200.45-13.76L200.45-13.76L200.45-13.76Q200.06-14.91 200.06-16.19L200.06-16.19L200.06-16.19Q200.06-18.56 201.15-19.62L201.15-19.62L201.15-19.62Q202.24-20.67 203.97-20.67L203.97-20.67L217.66-20.67L217.66-20.67Q218.05-19.97 218.46-18.82L218.46-18.82L218.46-18.82Q218.88-17.66 218.88-16.38L218.88-16.38L218.88-16.38Q218.88-14.02 217.79-12.96L217.79-12.96L217.79-12.96Q216.70-11.90 214.98-11.90L214.98-11.90ZM250.37-9.28L250.37-9.28L250.37-9.28Q250.37-4.42 246.72-1.66L246.72-1.66L246.72-1.66Q243.07 1.09 235.97 1.09L235.97 1.09L235.97 1.09Q233.28 1.09 230.98 0.70L230.98 0.70L230.98 0.70Q228.67 0.32 227.04-0.48L227.04-0.48L227.04-0.48Q225.41-1.28 224.48-2.50L224.48-2.50L224.48-2.50Q223.55-3.71 223.55-5.38L223.55-5.38L223.55-5.38Q223.55-6.91 224.19-7.97L224.19-7.97L224.19-7.97Q224.83-9.02 225.73-9.73L225.73-9.73L225.73-9.73Q227.58-8.70 229.98-7.90L229.98-7.90L229.98-7.90Q232.38-7.10 235.52-7.10L235.52-7.10L235.52-7.10Q237.50-7.10 238.56-7.68L238.56-7.68L238.56-7.68Q239.62-8.26 239.62-9.22L239.62-9.22L239.62-9.22Q239.62-10.11 238.85-10.62L238.85-10.62L238.85-10.62Q238.08-11.14 236.29-11.46L236.29-11.46L234.37-11.84L234.37-11.84Q228.80-12.93 226.08-15.26L226.08-15.26L226.08-15.26Q223.36-17.60 223.36-21.95L223.36-21.95L223.36-21.95Q223.36-24.32 224.38-26.24L224.38-26.24L224.38-26.24Q225.41-28.16 227.26-29.44L227.26-29.44L227.26-29.44Q229.12-30.72 231.71-31.42L231.71-31.42L231.71-31.42Q234.30-32.13 237.44-32.13L237.44-32.13L237.44-32.13Q239.81-32.13 241.89-31.78L241.89-31.78L241.89-31.78Q243.97-31.42 245.50-30.72L245.50-30.72L245.50-30.72Q247.04-30.02 247.94-28.90L247.94-28.90L247.94-28.90Q248.83-27.78 248.83-26.24L248.83-26.24L248.83-26.24Q248.83-24.77 248.29-23.71L248.29-23.71L248.29-23.71Q247.74-22.66 246.91-21.95L246.91-21.95L246.91-21.95Q246.40-22.27 245.38-22.62L245.38-22.62L245.38-22.62Q244.35-22.98 243.14-23.26L243.14-23.26L243.14-23.26Q241.92-23.55 240.67-23.74L240.67-23.74L240.67-23.74Q239.42-23.94 238.40-23.94L238.40-23.94L238.40-23.94Q236.29-23.94 235.14-23.46L235.14-23.46L235.14-23.46Q233.98-22.98 233.98-21.95L233.98-21.95L233.98-21.95Q233.98-21.25 234.62-20.80L234.62-20.80L234.62-20.80Q235.26-20.35 237.06-19.97L237.06-19.97L239.04-19.52L239.04-19.52Q245.18-18.11 247.78-15.65L247.78-15.65L247.78-15.65Q250.37-13.18 250.37-9.28ZM272.06 1.02L272.06 1.02L272.06 1.02Q268.29 1.02 265.06-0.03L265.06-0.03L265.06-0.03Q261.82-1.09 259.42-3.20L259.42-3.20L259.42-3.20Q257.02-5.31 255.65-8.51L255.65-8.51L255.65-8.51Q254.27-11.71 254.27-16L254.27-16L254.27-16Q254.27-20.22 255.65-23.26L255.65-23.26L255.65-23.26Q257.02-26.30 259.26-28.26L259.26-28.26L259.26-28.26Q261.50-30.21 264.38-31.14L264.38-31.14L264.38-31.14Q267.26-32.06 270.27-32.06L270.27-32.06L270.27-32.06Q273.66-32.06 276.45-31.04L276.45-31.04L276.45-31.04Q279.23-30.02 281.25-28.22L281.25-28.22L281.25-28.22Q283.26-26.43 284.38-23.94L284.38-23.94L284.38-23.94Q285.50-21.44 285.50-18.50L285.50-18.50L285.50-18.50Q285.50-16.32 284.29-15.17L284.29-15.17L284.29-15.17Q283.07-14.02 280.90-13.70L280.90-13.70L265.09-11.33L265.09-11.33Q265.79-9.22 267.97-8.16L267.97-8.16L267.97-8.16Q270.14-7.10 272.96-7.10L272.96-7.10L272.96-7.10Q275.58-7.10 277.92-7.78L277.92-7.78L277.92-7.78Q280.26-8.45 281.73-9.34L281.73-9.34L281.73-9.34Q282.75-8.70 283.46-7.55L283.46-7.55L283.46-7.55Q284.16-6.40 284.16-5.12L284.16-5.12L284.16-5.12Q284.16-2.24 281.47-0.83L281.47-0.83L281.47-0.83Q279.42 0.26 276.86 0.64L276.86 0.64L276.86 0.64Q274.30 1.02 272.06 1.02ZM270.27-24.13L270.27-24.13L270.27-24.13Q268.74-24.13 267.62-23.62L267.62-23.62L267.62-23.62Q266.50-23.10 265.79-22.30L265.79-22.30L265.79-22.30Q265.09-21.50 264.74-20.51L264.74-20.51L264.74-20.51Q264.38-19.52 264.32-18.50L264.32-18.50L275.26-20.29L275.26-20.29Q275.07-21.57 273.86-22.85L273.86-22.85L273.86-22.85Q272.64-24.13 270.27-24.13ZM301.63-21.89L301.63-0.06L301.63-0.06Q300.99 0.13 299.62 0.32L299.62 0.32L299.62 0.32Q298.24 0.51 296.77 0.51L296.77 0.51L296.77 0.51Q295.36 0.51 294.24 0.32L294.24 0.32L294.24 0.32Q293.12 0.13 292.35-0.45L292.35-0.45L292.35-0.45Q291.58-1.02 291.17-2.02L291.17-2.02L291.17-2.02Q290.75-3.01 290.75-4.61L290.75-4.61L290.75-23.81L290.75-23.81Q290.75-25.28 291.30-26.34L291.30-26.34L291.30-26.34Q291.84-27.39 292.86-28.22L292.86-28.22L292.86-28.22Q293.89-29.06 295.39-29.73L295.39-29.73L295.39-29.73Q296.90-30.40 298.62-30.91L298.62-30.91L298.62-30.91Q300.35-31.42 302.21-31.71L302.21-31.71L302.21-31.71Q304.06-32 305.92-32L305.92-32L305.92-32Q308.99-32 310.78-30.82L310.78-30.82L310.78-30.82Q312.58-29.63 312.58-26.94L312.58-26.94L312.58-26.94Q312.58-26.05 312.32-25.18L312.32-25.18L312.32-25.18Q312.06-24.32 311.68-23.62L311.68-23.62L311.68-23.62Q310.34-23.62 308.93-23.49L308.93-23.49L308.93-23.49Q307.52-23.36 306.18-23.10L306.18-23.10L306.18-23.10Q304.83-22.85 303.65-22.56L303.65-22.56L303.65-22.56Q302.46-22.27 301.63-21.89L301.63-21.89ZM337.86-0.83L337.86-0.83L337.86-0.83Q336.96-0.13 335.23 0.32L335.23 0.32L335.23 0.32Q333.50 0.77 331.33 0.77L331.33 0.77L331.33 0.77Q328.83 0.77 327.01 0.13L327.01 0.13L327.01 0.13Q325.18-0.51 324.48-1.92L324.48-1.92L324.48-1.92Q323.90-3.01 323.10-4.96L323.10-4.96L323.10-4.96Q322.30-6.91 321.41-9.31L321.41-9.31L321.41-9.31Q320.51-11.71 319.55-14.46L319.55-14.46L319.55-14.46Q318.59-17.22 317.73-19.90L317.73-19.90L317.73-19.90Q316.86-22.59 316.16-25.09L316.16-25.09L316.16-25.09Q315.46-27.58 315.01-29.50L315.01-29.50L315.01-29.50Q315.90-30.40 317.41-31.07L317.41-31.07L317.41-31.07Q318.91-31.74 320.70-31.74L320.70-31.74L320.70-31.74Q322.94-31.74 324.38-30.82L324.38-30.82L324.38-30.82Q325.82-29.89 326.53-27.33L326.53-27.33L329.02-17.54L329.02-17.54Q329.73-14.66 330.37-12.32L330.37-12.32L330.37-12.32Q331.01-9.98 331.33-8.70L331.33-8.70L331.65-8.70L331.65-8.70Q332.86-13.44 334.21-19.20L334.21-19.20L334.21-19.20Q335.55-24.96 336.64-30.53L336.64-30.53L336.64-30.53Q337.73-31.10 339.10-31.42L339.10-31.42L339.10-31.42Q340.48-31.74 341.76-31.74L341.76-31.74L341.76-31.74Q344.00-31.74 345.54-30.78L345.54-30.78L345.54-30.78Q347.07-29.82 347.07-27.46L347.07-27.46L347.07-27.46Q347.07-26.43 346.59-24.48L346.59-24.48L346.59-24.48Q346.11-22.53 345.38-20.06L345.38-20.06L345.38-20.06Q344.64-17.60 343.65-14.85L343.65-14.85L343.65-14.85Q342.66-12.10 341.63-9.47L341.63-9.47L341.63-9.47Q340.61-6.85 339.62-4.58L339.62-4.58L339.62-4.58Q338.62-2.30 337.86-0.83ZM368.38 1.02L368.38 1.02L368.38 1.02Q364.61 1.02 361.38-0.03L361.38-0.03L361.38-0.03Q358.14-1.09 355.74-3.20L355.74-3.20L355.74-3.20Q353.34-5.31 351.97-8.51L351.97-8.51L351.97-8.51Q350.59-11.71 350.59-16L350.59-16L350.59-16Q350.59-20.22 351.97-23.26L351.97-23.26L351.97-23.26Q353.34-26.30 355.58-28.26L355.58-28.26L355.58-28.26Q357.82-30.21 360.70-31.14L360.70-31.14L360.70-31.14Q363.58-32.06 366.59-32.06L366.59-32.06L366.59-32.06Q369.98-32.06 372.77-31.04L372.77-31.04L372.77-31.04Q375.55-30.02 377.57-28.22L377.57-28.22L377.57-28.22Q379.58-26.43 380.70-23.94L380.70-23.94L380.70-23.94Q381.82-21.44 381.82-18.50L381.82-18.50L381.82-18.50Q381.82-16.32 380.61-15.17L380.61-15.17L380.61-15.17Q379.39-14.02 377.22-13.70L377.22-13.70L361.41-11.33L361.41-11.33Q362.11-9.22 364.29-8.16L364.29-8.16L364.29-8.16Q366.46-7.10 369.28-7.10L369.28-7.10L369.28-7.10Q371.90-7.10 374.24-7.78L374.24-7.78L374.24-7.78Q376.58-8.45 378.05-9.34L378.05-9.34L378.05-9.34Q379.07-8.70 379.78-7.55L379.78-7.55L379.78-7.55Q380.48-6.40 380.48-5.12L380.48-5.12L380.48-5.12Q380.48-2.24 377.79-0.83L377.79-0.83L377.79-0.83Q375.74 0.26 373.18 0.64L373.18 0.64L373.18 0.64Q370.62 1.02 368.38 1.02ZM366.59-24.13L366.59-24.13L366.59-24.13Q365.06-24.13 363.94-23.62L363.94-23.62L363.94-23.62Q362.82-23.10 362.11-22.30L362.11-22.30L362.11-22.30Q361.41-21.50 361.06-20.51L361.06-20.51L361.06-20.51Q360.70-19.52 360.64-18.50L360.64-18.50L371.58-20.29L371.58-20.29Q371.39-21.57 370.18-22.85L370.18-22.85L370.18-22.85Q368.96-24.13 366.59-24.13ZM397.95-21.89L397.95-0.06L397.95-0.06Q397.31 0.13 395.94 0.32L395.94 0.32L395.94 0.32Q394.56 0.51 393.09 0.51L393.09 0.51L393.09 0.51Q391.68 0.51 390.56 0.32L390.56 0.32L390.56 0.32Q389.44 0.13 388.67-0.45L388.67-0.45L388.67-0.45Q387.90-1.02 387.49-2.02L387.49-2.02L387.49-2.02Q387.07-3.01 387.07-4.61L387.07-4.61L387.07-23.81L387.07-23.81Q387.07-25.28 387.62-26.34L387.62-26.34L387.62-26.34Q388.16-27.39 389.18-28.22L389.18-28.22L389.18-28.22Q390.21-29.06 391.71-29.73L391.71-29.73L391.71-29.73Q393.22-30.40 394.94-30.91L394.94-30.91L394.94-30.91Q396.67-31.42 398.53-31.71L398.53-31.71L398.53-31.71Q400.38-32 402.24-32L402.24-32L402.24-32Q405.31-32 407.10-30.82L407.10-30.82L407.10-30.82Q408.90-29.63 408.90-26.94L408.90-26.94L408.90-26.94Q408.90-26.05 408.64-25.18L408.64-25.18L408.64-25.18Q408.38-24.32 408.00-23.62L408.00-23.62L408.00-23.62Q406.66-23.62 405.25-23.49L405.25-23.49L405.25-23.49Q403.84-23.36 402.50-23.10L402.50-23.10L402.50-23.10Q401.15-22.85 399.97-22.56L399.97-22.56L399.97-22.56Q398.78-22.27 397.95-21.89L397.95-21.89Z" fill="#ccc"></path></g></g><style>text {
  font-size: 64px;
  font-family: Arial Black;
  dominant-baseline: central;
  text-anchor: middle;
}</style></svg>